<svg width="32" height="32" viewBox="0 0 32 32" fill="none" xmlns="http://www.w3.org/2000/svg">
<path d="M8.66667 26C6.824 26 5.25222 25.3608 3.95133 24.0823C2.65044 22.8039 2 21.2414 2 19.395C2 17.7386 2.53289 16.2817 3.59867 15.0243C4.66444 13.767 5.98622 13.0221 7.564 12.7897C7.99133 10.7966 8.99356 9.16667 10.5707 7.9C12.1476 6.63333 13.9573 6 16 6C18.4142 6 20.4622 6.84089 22.144 8.52267C23.8258 10.2044 24.6667 12.2524 24.6667 14.6667V15.3333H25.077C26.4821 15.4427 27.6539 16.0077 28.5923 17.0283C29.5308 18.0488 30 19.2616 30 20.6667C30 22.1538 29.4872 23.4144 28.4617 24.4487C27.4359 25.4829 26.1794 26 24.6923 26H17.4103C16.7368 26 16.1667 25.7667 15.7 25.3C15.2333 24.8333 15 24.2632 15 23.5897V16.287L12.5333 18.7127L11.1283 17.3207L16 12.4487L20.8717 17.3207L19.4667 18.7127L17 16.287V23.5897C17 23.6923 17.0428 23.7863 17.1283 23.8717C17.2137 23.9572 17.3077 24 17.4103 24H24.6667C25.6 24 26.3889 23.6778 27.0333 23.0333C27.6778 22.3889 28 21.6 28 20.6667C28 19.7333 27.6778 18.9444 27.0333 18.3C26.3889 17.6556 25.6 17.3333 24.6667 17.3333H22.6667V14.6667C22.6667 12.8222 22.0167 11.25 20.7167 9.95C19.4167 8.65 17.8444 8 16 8C14.1556 8 12.5833 8.65 11.2833 9.95C9.98333 11.25 9.33333 12.8222 9.33333 14.6667H8.641C7.37767 14.6667 6.28833 15.1222 5.373 16.0333C4.45767 16.9444 4 18.0444 4 19.3333C4 20.6222 4.45556 21.7222 5.36667 22.6333C6.27778 23.5444 7.37778 24 8.66667 24H12V26H8.66667Z" fill="#9D9D9D"/>
</svg>
