<svg width="28" height="28" viewBox="0 0 28 28" fill="none" xmlns="http://www.w3.org/2000/svg">
<path d="M8.52571 23.9164C7.94393 23.9164 7.44693 23.7103 7.03471 23.2983C6.62268 22.8861 6.41667 22.3891 6.41667 21.8073V6.99969H5.25V5.24969H10.5V4.21777H17.5V5.24969H22.75V6.99969H21.5833V21.8073C21.5833 22.3967 21.3792 22.8955 20.9708 23.3039C20.5625 23.7122 20.0637 23.9164 19.4743 23.9164H8.52571ZM19.8333 6.99969H8.16667V21.8073C8.16667 21.9121 8.20031 21.9982 8.26758 22.0654C8.33486 22.1327 8.4209 22.1664 8.52571 22.1664H19.4743C19.5641 22.1664 19.6464 22.1289 19.721 22.0541C19.7959 21.9794 19.8333 21.8971 19.8333 21.8073V6.99969ZM10.9713 19.833H12.721V9.33302H10.9713V19.833ZM15.279 19.833H17.0287V9.33302H15.279V19.833Z" fill="#555555"/>
</svg>
