<svg width="28" height="28" viewBox="0 0 28 28" fill="none" xmlns="http://www.w3.org/2000/svg">
<path d="M2.33301 27.9997V24.4997H25.6663V27.9997H2.33301ZM6.99967 19.1488H8.44226L18.1256 9.48324L17.3921 8.73861L16.6652 8.02286L6.99967 17.7062V19.1488ZM5.24967 20.8988V16.9613L18.3277 3.90132C18.4967 3.73235 18.6885 3.6045 18.9032 3.51778C19.1176 3.43106 19.3409 3.3877 19.5728 3.3877C19.805 3.3877 20.0298 3.43106 20.2472 3.51778C20.4646 3.6045 20.6638 3.73838 20.8448 3.9194L22.2471 5.33953C22.4282 5.5085 22.559 5.70207 22.6397 5.92024C22.7204 6.13821 22.7608 6.36357 22.7608 6.59632C22.7608 6.81449 22.7198 7.03139 22.638 7.24703C22.5561 7.46286 22.4258 7.66013 22.2471 7.83882L9.18717 20.8988H5.24967ZM18.1256 9.48324L17.3921 8.73861L16.6652 8.02286L18.1256 9.48324Z" fill="#555555"/>
</svg>
