<svg width="18" height="18" viewBox="0 0 18 18" fill="none" xmlns="http://www.w3.org/2000/svg">
<mask id="mask0_202_6431" style="mask-type:alpha" maskUnits="userSpaceOnUse" x="0" y="0" width="24" height="24">
<rect width="24" height="24" fill="#D9D9D9"/>
</mask>
<g mask="url(#mask0_202_6431)">
<path d="M5.25 10.2114C4.91438 10.2114 4.62856 10.0934 4.39256 9.85744C4.15656 9.62144 4.03856 9.33562 4.03856 9C4.03856 8.66438 4.15656 8.37856 4.39256 8.14256C4.62856 7.90656 4.91438 7.78856 5.25 7.78856C5.58562 7.78856 5.87144 7.90656 6.10744 8.14256C6.34344 8.37856 6.46144 8.66438 6.46144 9C6.46144 9.33562 6.34344 9.62144 6.10744 9.85744C5.87144 10.0934 5.58562 10.2114 5.25 10.2114ZM5.25 13.125C4.10575 13.125 3.13219 12.7236 2.32931 11.9207C1.52644 11.1178 1.125 10.1443 1.125 9C1.125 7.85575 1.52644 6.88219 2.32931 6.07931C3.13219 5.27644 4.10575 4.875 5.25 4.875C6.05388 4.875 6.78081 5.08244 7.43081 5.49731C8.08081 5.91231 8.57694 6.45487 8.91919 7.125H15.6707L17.5457 9L14.661 11.8701L13.2692 10.8246L11.8414 11.8845L10.3774 10.875H8.91919C8.57694 11.5404 8.08081 12.0817 7.43081 12.4989C6.78081 12.9163 6.05388 13.125 5.25 13.125ZM5.25 12C5.96925 12 6.59206 11.7827 7.11844 11.3481C7.64494 10.9134 7.9885 10.3808 8.14913 9.75H10.7308L11.811 10.4972L13.2765 9.42544L14.55 10.3991L15.9491 9L15.1991 8.25H8.14913C7.9885 7.61925 7.64494 7.08656 7.11844 6.65194C6.59206 6.21731 5.96925 6 5.25 6C4.425 6 3.71875 6.29375 3.13125 6.88125C2.54375 7.46875 2.25 8.175 2.25 9C2.25 9.825 2.54375 10.5312 3.13125 11.1187C3.71875 11.7062 4.425 12 5.25 12Z" fill="#555555"/>
</g>
</svg>
