<svg width="68" height="68" viewBox="0 0 68 68" fill="none" xmlns="http://www.w3.org/2000/svg">
<rect width="68" height="68" rx="10" fill="#BBE6CA"/>
<path d="M32.3436 38.9621L40.1871 31.1186L38.9577 29.8892L32.3436 36.5033L29.0186 33.1783L27.7892 34.4077L32.3436 38.9621ZM34.0014 45.0827C32.4684 45.0827 31.0275 44.7918 29.6786 44.21C28.3297 43.6282 27.1565 42.8387 26.1588 41.8414C25.1611 40.8441 24.3711 39.6713 23.789 38.323C23.207 36.9747 22.916 35.5342 22.916 34.0014C22.916 32.4684 23.2069 31.0275 23.7887 29.6786C24.3705 28.3297 25.16 27.1565 26.1573 26.1588C27.1546 25.1611 28.3274 24.3711 29.6757 23.789C31.024 23.207 32.4645 22.916 33.9973 22.916C35.5303 22.916 36.9712 23.2069 38.3201 23.7887C39.669 24.3705 40.8422 25.16 41.8399 26.1573C42.8376 27.1546 43.6276 28.3274 44.2097 29.6757C44.7917 31.024 45.0827 32.4645 45.0827 33.9973C45.0827 35.5303 44.7918 36.9712 44.21 38.3201C43.6282 39.669 42.8387 40.8422 41.8414 41.8399C40.8441 42.8376 39.6713 43.6276 38.323 44.2097C36.9747 44.7917 35.5342 45.0827 34.0014 45.0827ZM33.9993 43.3327C36.6049 43.3327 38.8118 42.4285 40.6202 40.6202C42.4285 38.8118 43.3327 36.6049 43.3327 33.9993C43.3327 31.3938 42.4285 29.1868 40.6202 27.3785C38.8118 25.5702 36.6049 24.666 33.9993 24.666C31.3938 24.666 29.1868 25.5702 27.3785 27.3785C25.5702 29.1868 24.666 31.3938 24.666 33.9993C24.666 36.6049 25.5702 38.8118 27.3785 40.6202C29.1868 42.4285 31.3938 43.3327 33.9993 43.3327Z" fill="#39B871"/>
</svg>
