<svg width="18" height="18" viewBox="0 0 18 18" fill="none" xmlns="http://www.w3.org/2000/svg">
<path d="M14.6564 15.4323L9.94586 10.7215C9.57086 11.0311 9.13961 11.2735 8.65211 11.4485C8.16461 11.6235 7.6603 11.711 7.13917 11.711C5.8573 11.711 4.77242 11.2671 3.88455 10.3795C2.99667 9.4919 2.55273 8.40727 2.55273 7.12565C2.55273 5.84415 2.99655 4.75915 3.88417 3.87065C4.7718 2.98227 5.85642 2.53809 7.13805 2.53809C8.41955 2.53809 9.50455 2.98202 10.393 3.8699C11.2814 4.75777 11.7256 5.84265 11.7256 7.12452C11.7256 7.66015 11.6357 8.17171 11.456 8.65921C11.2761 9.14671 11.0362 9.57071 10.7362 9.93121L15.4467 14.6418L14.6564 15.4323ZM7.13917 10.5861C8.10555 10.5861 8.92405 10.2508 9.59467 9.58002C10.2654 8.9094 10.6008 8.0909 10.6008 7.12452C10.6008 6.15815 10.2654 5.33965 9.59467 4.66902C8.92405 3.99827 8.10555 3.6629 7.13917 3.6629C6.1728 3.6629 5.3543 3.99827 4.68367 4.66902C4.01292 5.33965 3.67755 6.15815 3.67755 7.12452C3.67755 8.0909 4.01292 8.9094 4.68367 9.58002C5.3543 10.2508 6.1728 10.5861 7.13917 10.5861Z" fill="#555555"/>
</svg>
